<?xml version="1.0" encoding="UTF-8"?>
<svg id="Layer_2" xmlns="http://www.w3.org/2000/svg" viewBox="0 0 6873.37 3925.9">
  <defs>
    <style>
      .cls-1 {
        fill: none;
        stroke: #fff;
        stroke-miterlimit: 10;
        stroke-width: .67px;
      }

      .cls-2 {
        fill: #fff;
      }

      .cls-3 {
        fill: #55575b;
      }
    </style>
  </defs>
  <g id="Design">
    <path class="cls-3" d="M3438.82,1869.15c-56.22,0-110.76-11.01-162.12-32.73-49.6-20.98-94.13-51-132.38-89.25-38.24-38.24-68.27-82.78-89.25-132.38-21.72-51.35-32.73-105.9-32.73-162.11V416.48c0-56.22,11.01-110.76,32.73-162.11,20.98-49.6,51.01-94.13,89.25-132.38,38.24-38.24,82.78-68.27,132.38-89.25,51.35-21.72,105.9-32.73,162.11-32.73s110.76,11.01,162.11,32.73c49.6,20.98,94.13,51,132.38,89.25,38.25,38.25,68.27,82.78,89.25,132.38,21.72,51.35,32.73,105.9,32.73,162.11v1036.2c0,56.22-11.01,110.76-32.73,162.11-20.98,49.59-51,94.13-89.25,132.38-38.25,38.25-82.78,68.27-132.38,89.25-51.35,21.72-105.9,32.73-162.11,32.73ZM3438.82,21.84c-53.28,0-104.96,10.43-153.61,31.01-46.99,19.88-89.2,48.33-125.44,84.58-36.25,36.25-64.7,78.45-84.58,125.44-20.58,48.65-31.01,100.33-31.01,153.61v1036.2c0,53.28,10.43,104.96,31.01,153.61,19.88,46.99,48.33,89.2,84.58,125.44,36.25,36.25,78.45,64.7,125.44,84.58,48.65,20.58,100.33,31.01,153.61,31.01s104.96-10.43,153.61-31.01c46.99-19.88,89.2-48.33,125.44-84.58,36.25-36.25,64.7-78.45,84.58-125.44,20.58-48.65,31.01-100.33,31.01-153.61V416.48c0-53.28-10.43-104.96-31.01-153.61-19.88-46.99-48.33-89.2-84.58-125.44-36.25-36.25-78.45-64.7-125.44-84.58-48.65-20.58-100.33-31.01-153.61-31.01Z"/>
    <path class="cls-3" d="M2409.08,1839.01h-1001.04c-56.22,0-110.76-11.01-162.11-32.73-49.59-20.98-94.13-51-132.38-89.25-38.24-38.24-68.27-82.78-89.25-132.38-21.72-51.35-32.73-105.9-32.73-162.11s11.01-110.76,32.73-162.11c20.98-49.6,51-94.13,89.25-132.38,38.25-38.24,82.78-68.27,132.38-89.25,51.35-21.72,105.9-32.73,162.11-32.73h1001.04c56.22,0,110.76,11.01,162.11,32.73,49.59,20.98,94.13,51.01,132.38,89.25,38.25,38.24,68.27,82.78,89.25,132.38,21.72,51.35,32.73,105.9,32.73,162.11s-11.01,110.76-32.73,162.12c-20.98,49.59-51,94.13-89.25,132.38-38.25,38.25-82.78,68.27-132.38,89.25-51.35,21.72-105.9,32.73-162.11,32.73ZM1408.04,1027.9c-53.28,0-104.96,10.43-153.61,31.01-46.99,19.88-89.2,48.33-125.44,84.58-36.25,36.25-64.7,78.45-84.58,125.44-20.58,48.65-31.01,100.33-31.01,153.61s10.43,104.96,31.01,153.61c19.88,46.99,48.33,89.2,84.58,125.44,36.25,36.25,78.45,64.7,125.44,84.58,48.65,20.58,100.33,31.01,153.61,31.01h1001.04c53.28,0,104.96-10.43,153.61-31.01,46.99-19.88,89.2-48.33,125.44-84.58,36.25-36.25,64.7-78.45,84.58-125.44,20.58-48.65,31.01-100.33,31.01-153.61s-10.43-104.96-31.01-153.61c-19.88-46.99-48.33-89.2-84.58-125.44s-78.45-64.7-125.44-84.58c-48.65-20.58-100.33-31.01-153.61-31.01h-1001.04Z"/>
    <path class="cls-3" d="M6456.9,1839.01h-1001.04c-56.22,0-110.76-11.01-162.11-32.73-49.59-20.98-94.13-51-132.38-89.25-38.24-38.24-68.27-82.78-89.25-132.38-21.72-51.35-32.73-105.9-32.73-162.11s11.01-110.76,32.73-162.11c20.98-49.6,51-94.13,89.25-132.38,38.25-38.24,82.78-68.27,132.38-89.25,51.35-21.72,105.9-32.73,162.11-32.73h1001.04c56.22,0,110.76,11.01,162.11,32.73,49.59,20.98,94.13,51.01,132.38,89.25,38.24,38.24,68.27,82.78,89.25,132.38,21.72,51.35,32.73,105.9,32.73,162.11s-11.01,110.76-32.73,162.12c-20.98,49.59-51,94.13-89.25,132.38-38.25,38.25-82.78,68.27-132.38,89.25-51.35,21.72-105.9,32.73-162.11,32.73ZM5455.85,1027.9c-53.28,0-104.96,10.43-153.61,31.01-46.99,19.88-89.2,48.33-125.44,84.58-36.25,36.25-64.7,78.45-84.58,125.44-20.58,48.65-31.01,100.33-31.01,153.61s10.43,104.96,31.01,153.61c19.88,46.99,48.33,89.2,84.58,125.44,36.25,36.25,78.45,64.7,125.44,84.58,48.65,20.58,100.33,31.01,153.61,31.01h1001.04c53.28,0,104.96-10.43,153.61-31.01,46.99-19.88,89.2-48.33,125.44-84.58,36.25-36.25,64.7-78.45,84.58-125.44,20.58-48.65,31.01-100.33,31.01-153.61s-10.43-104.96-31.01-153.61c-19.88-46.99-48.33-89.2-84.58-125.44-36.25-36.25-78.45-64.7-125.44-84.58-48.65-20.58-100.33-31.01-153.61-31.01h-1001.04Z"/>
    <path class="cls-3" d="M4454.4,2910.32h-1017.36c-56.22,0-110.76-11.01-162.11-32.73-49.59-20.98-94.13-51-132.38-89.25-38.24-38.24-68.27-82.78-89.25-132.38-21.72-51.35-32.73-105.9-32.73-162.11s11.01-110.76,32.73-162.12c20.98-49.59,51.01-94.13,89.25-132.38,38.24-38.25,82.78-68.27,132.38-89.25,51.35-21.72,105.9-32.73,162.11-32.73h1017.36c56.22,0,110.76,11.01,162.11,32.73,49.59,20.98,94.13,51,132.38,89.25,38.25,38.25,68.27,82.78,89.25,132.38,21.72,51.35,32.73,105.9,32.73,162.11s-11.01,110.76-32.73,162.12c-20.98,49.59-51,94.13-89.25,132.38-38.24,38.25-82.78,68.27-132.38,89.25-51.35,21.72-105.9,32.73-162.11,32.73ZM3437.04,2099.2c-53.28,0-104.96,10.43-153.61,31.01-46.99,19.88-89.2,48.33-125.44,84.58-36.25,36.25-64.7,78.45-84.58,125.44-20.58,48.65-31.01,100.33-31.01,153.61s10.43,104.96,31.01,153.61c19.88,46.99,48.33,89.2,84.58,125.44s78.45,64.7,125.44,84.58c48.65,20.58,100.33,31.01,153.61,31.01h1017.36c53.28,0,104.96-10.43,153.61-31.01,46.99-19.88,89.2-48.33,125.44-84.58,36.25-36.25,64.7-78.45,84.58-125.44,20.58-48.65,31.01-100.33,31.01-153.61s-10.43-104.96-31.01-153.61c-19.88-46.99-48.33-89.2-84.58-125.44-36.25-36.25-78.45-64.7-125.44-84.58-48.65-20.58-100.33-31.01-153.61-31.01h-1017.36Z"/>
    <circle class="cls-3" cx="4435.87" cy="417.37" r="406.45"/>
    <circle class="cls-3" cx="2419.73" cy="417.37" r="406.45"/>
    <g>
      <path class="cls-3" d="M5876.74,428.29h-834.74v-10.92c0-56.34,11.04-111,32.8-162.46,21.02-49.7,51.11-94.34,89.44-132.66,38.33-38.33,82.96-68.42,132.66-89.44,51.46-21.77,106.12-32.8,162.46-32.8s111,11.04,162.46,32.8c49.7,21.02,94.34,51.11,132.66,89.44,38.33,38.33,68.42,82.96,89.44,132.66,21.77,51.46,32.8,106.12,32.8,162.46v10.92ZM5063.98,406.45h790.77c-1.33-49.54-11.72-97.61-30.93-143.04-19.92-47.1-48.44-89.4-84.77-125.73-36.33-36.33-78.63-64.85-125.73-84.77-48.76-20.62-100.55-31.08-153.96-31.08s-105.2,10.46-153.96,31.08c-47.1,19.92-89.4,48.44-125.73,84.77-36.33,36.33-64.85,78.63-84.77,125.73-19.21,45.43-29.6,93.49-30.93,143.04Z"/>
      <path class="cls-3" d="M5876.74,834.74h-834.74v-10.92c0-56.34,11.04-111,32.8-162.46,21.02-49.7,51.11-94.33,89.44-132.66,38.33-38.33,82.96-68.42,132.66-89.44,51.46-21.77,106.12-32.8,162.46-32.8s111,11.04,162.46,32.8c49.7,21.02,94.34,51.11,132.66,89.44,38.33,38.33,68.42,82.96,89.44,132.66,21.77,51.46,32.8,106.12,32.8,162.46v10.92ZM5063.98,812.9h790.77c-1.33-49.54-11.72-97.61-30.93-143.04-19.92-47.1-48.44-89.4-84.77-125.73-36.33-36.33-78.63-64.85-125.73-84.77-48.76-20.62-100.55-31.08-153.96-31.08s-105.2,10.46-153.96,31.08c-47.1,19.92-89.4,48.44-125.73,84.77-36.33,36.33-64.85,78.63-84.77,125.73-19.21,45.43-29.6,93.49-30.93,143.04Z"/>
    </g>
    <path class="cls-3" d="M1433.84,3925.9H416.48c-56.22,0-110.76-11.01-162.11-32.73-49.6-20.98-94.13-51-132.38-89.25-38.24-38.24-68.27-82.78-89.25-132.38-21.72-51.35-32.73-105.9-32.73-162.11s11.01-110.76,32.73-162.12c20.98-49.59,51.01-94.13,89.25-132.38,38.24-38.25,82.78-68.27,132.38-89.25,51.35-21.72,105.9-32.73,162.11-32.73h1017.36c56.22,0,110.76,11.01,162.11,32.73,49.59,20.98,94.13,51,132.38,89.25,38.24,38.25,68.27,82.78,89.25,132.38,21.72,51.35,32.73,105.9,32.73,162.11s-11.01,110.76-32.73,162.12c-20.98,49.6-51,94.13-89.25,132.38-38.24,38.25-82.78,68.27-132.38,89.25-51.35,21.72-105.9,32.73-162.11,32.73ZM416.48,3114.78c-53.28,0-104.96,10.43-153.61,31.01-46.99,19.88-89.2,48.33-125.44,84.58-36.25,36.25-64.7,78.45-84.58,125.44-20.58,48.65-31.01,100.33-31.01,153.61s10.43,104.96,31.01,153.61c19.88,46.99,48.33,89.2,84.58,125.44,36.25,36.25,78.45,64.7,125.44,84.58,48.65,20.58,100.33,31.01,153.61,31.01h1017.36c53.28,0,104.96-10.43,153.61-31.01,46.99-19.88,89.2-48.33,125.44-84.58,36.25-36.25,64.7-78.45,84.58-125.44,20.58-48.65,31.01-100.33,31.01-153.61s-10.43-104.96-31.01-153.61c-19.88-46.99-48.33-89.2-84.58-125.44-36.25-36.25-78.45-64.7-125.44-84.58-48.65-20.58-100.33-31.01-153.61-31.01H416.48Z"/>
    <path class="cls-3" d="M5450.21,3925.9c-56.22,0-110.76-11.01-162.12-32.73-49.6-20.98-94.13-51-132.38-89.25-38.25-38.25-68.27-82.78-89.25-132.38-21.72-51.35-32.73-105.9-32.73-162.11v-1017.36c0-56.22,11.01-110.76,32.73-162.11,20.98-49.59,51-94.13,89.25-132.38,38.24-38.24,82.78-68.27,132.38-89.25,51.35-21.72,105.9-32.73,162.11-32.73s110.76,11.01,162.12,32.73c49.59,20.98,94.13,51,132.38,89.25,38.25,38.25,68.27,82.78,89.25,132.38,21.72,51.35,32.73,105.9,32.73,162.11v1017.36c0,56.22-11.01,110.76-32.73,162.11-20.98,49.6-51,94.13-89.25,132.38s-82.78,68.27-132.38,89.25c-51.35,21.72-105.9,32.73-162.11,32.73ZM5450.21,2097.42c-53.28,0-104.96,10.43-153.61,31.01-46.99,19.88-89.2,48.33-125.44,84.58-36.25,36.25-64.7,78.45-84.58,125.44-20.58,48.65-31.01,100.33-31.01,153.61v1017.36c0,53.28,10.43,104.96,31.01,153.61,19.88,46.99,48.33,89.2,84.58,125.44,36.25,36.25,78.45,64.7,125.44,84.58,48.65,20.58,100.33,31.01,153.61,31.01s104.96-10.43,153.61-31.01c46.99-19.88,89.2-48.33,125.44-84.58,36.25-36.25,64.7-78.45,84.58-125.44,20.58-48.65,31.01-100.33,31.01-153.61v-1017.36c0-53.28-10.43-104.96-31.01-153.61-19.88-46.99-48.33-89.2-84.58-125.44-36.25-36.25-78.45-64.7-125.44-84.58-48.65-20.58-100.33-31.01-153.61-31.01Z"/>
    <circle class="cls-3" cx="3437.93" cy="3508.53" r="406.45"/>
    <circle class="cls-3" cx="6445.66" cy="3508.53" r="406.45"/>
    <g>
      <path class="cls-3" d="M4435.87,3925.9h-10.92v-834.74h10.92c56.34,0,111,11.04,162.46,32.8,49.7,21.02,94.34,51.11,132.66,89.44,38.33,38.33,68.42,82.96,89.44,132.66,21.77,51.46,32.8,106.12,32.8,162.46s-11.04,111-32.8,162.46c-21.02,49.7-51.11,94.34-89.44,132.66-38.33,38.33-82.96,68.42-132.66,89.44-51.46,21.77-106.12,32.8-162.46,32.8ZM4446.79,3113.14v790.77c49.54-1.33,97.61-11.72,143.04-30.93,47.1-19.92,89.4-48.44,125.73-84.77,36.33-36.33,64.85-78.63,84.77-125.73,20.62-48.76,31.08-100.55,31.08-153.96s-10.46-105.2-31.08-153.96c-19.92-47.1-48.44-89.4-84.77-125.73-36.33-36.33-78.63-64.85-125.73-84.77-45.43-19.21-93.49-29.6-143.04-30.93Z"/>
      <path class="cls-3" d="M4029.42,3925.9h-10.92v-834.74s10.92,0,10.92,0c56.34,0,111,11.04,162.46,32.8,49.7,21.02,94.34,51.11,132.66,89.44,38.33,38.33,68.42,82.96,89.44,132.66,21.77,51.46,32.8,106.12,32.8,162.46s-11.04,111-32.8,162.46c-21.02,49.7-51.11,94.34-89.44,132.66-38.33,38.33-82.96,68.42-132.66,89.44-51.46,21.77-106.12,32.8-162.46,32.8ZM4040.34,3113.14v790.77c49.54-1.33,97.61-11.72,143.04-30.93,47.1-19.92,89.4-48.44,125.73-84.77,36.33-36.33,64.85-78.63,84.77-125.73,20.62-48.76,31.08-100.55,31.08-153.96s-10.46-105.2-31.08-153.96c-19.92-47.1-48.44-89.4-84.77-125.73-36.33-36.33-78.63-64.85-125.73-84.77-45.43-19.21-93.49-29.6-143.04-30.93Z"/>
    </g>
    <g>
      <path class="cls-3" d="M2835.76,2910.32h-10.92c-56.34,0-111-11.04-162.46-32.8-49.7-21.02-94.34-51.11-132.66-89.44-38.33-38.33-68.42-82.96-89.44-132.66-21.77-51.46-32.8-106.12-32.8-162.46s11.04-111,32.8-162.46c21.02-49.7,51.11-94.34,89.44-132.66,38.33-38.33,82.96-68.42,132.66-89.44,51.46-21.77,106.12-32.8,162.46-32.8h10.92v834.74ZM2813.92,2097.57c-49.54,1.33-97.61,11.72-143.04,30.93-47.1,19.92-89.4,48.44-125.73,84.77-36.33,36.33-64.85,78.63-84.77,125.73-20.62,48.76-31.08,100.56-31.08,153.96s10.46,105.2,31.08,153.96c19.92,47.1,48.44,89.4,84.77,125.73,36.33,36.33,78.63,64.85,125.73,84.77,45.43,19.21,93.49,29.6,143.04,30.93v-790.77Z"/>
      <path class="cls-3" d="M2196.25,2910.32c-57.2,0-110.98-22.28-151.42-62.72-40.45-40.45-62.72-94.22-62.72-151.42v-406.45c0-57.2,22.27-110.98,62.72-151.42,40.45-40.45,94.22-62.72,151.42-62.72s110.98,22.27,151.42,62.72c40.45,40.45,62.72,94.22,62.72,151.42v406.45c0,57.2-22.27,110.98-62.72,151.42-40.45,40.45-94.22,62.72-151.42,62.72ZM2196.25,2097.42c-51.37,0-99.66,20-135.98,56.33-36.32,36.32-56.33,84.61-56.33,135.98v406.45c0,51.37,20,99.66,56.33,135.98,36.32,36.32,84.61,56.33,135.98,56.33s99.66-20,135.98-56.33c36.32-36.32,56.33-84.61,56.33-135.98v-406.45c0-51.37-20-99.66-56.33-135.98-36.32-36.32-84.61-56.33-135.98-56.33h0Z"/>
    </g>
    <g>
      <path class="cls-3" d="M10.92,834.74H0V0h10.92c56.34,0,111,11.04,162.46,32.8,49.7,21.02,94.34,51.11,132.66,89.44,38.33,38.33,68.42,82.96,89.44,132.66,21.77,51.46,32.8,106.12,32.8,162.46s-11.04,111-32.8,162.46c-21.02,49.7-51.11,94.34-89.44,132.66-38.33,38.33-82.96,68.42-132.66,89.44-51.46,21.77-106.12,32.8-162.46,32.8ZM21.84,21.98v790.77c49.54-1.33,97.61-11.72,143.04-30.93,47.1-19.92,89.4-48.44,125.73-84.77s64.85-78.63,84.77-125.73c20.62-48.76,31.08-100.55,31.08-153.96s-10.46-105.2-31.08-153.96c-19.92-47.1-48.44-89.4-84.77-125.73s-78.63-64.85-125.73-84.77C119.45,33.7,71.38,23.31,21.84,21.98Z"/>
      <path class="cls-3" d="M639.5,834.74c-57.2,0-110.98-22.27-151.42-62.72-40.45-40.45-62.72-94.22-62.72-151.42V214.14c0-57.2,22.27-110.98,62.72-151.42C528.53,22.27,582.3,0,639.5,0s110.98,22.27,151.42,62.72c40.45,40.45,62.72,94.22,62.72,151.42v406.45c0,57.2-22.27,110.98-62.72,151.42-40.45,40.45-94.22,62.72-151.42,62.72ZM639.5,21.84c-51.37,0-99.66,20-135.98,56.33-36.32,36.32-56.33,84.61-56.33,135.98v406.45c0,51.37,20,99.66,56.33,135.98,36.32,36.32,84.61,56.33,135.98,56.33h0c51.37,0,99.66-20,135.98-56.33,36.32-36.32,56.33-84.61,56.33-135.98V214.14c0-51.37-20-99.66-56.33-135.98-36.32-36.32-84.61-56.33-135.98-56.33Z"/>
    </g>
    <g>
      <path class="cls-2" d="M6193.02,2237.47c39.93,0,72.3-32.37,72.3-72.3s-32.37-72.3-72.3-72.3-72.3,32.37-72.3,72.3,32.37,72.3,72.3,72.3Z"/>
      <path class="cls-2" d="M6455.17,2237.47c39.93,0,72.3-32.37,72.3-72.3s-32.37-72.3-72.3-72.3-72.3,32.37-72.3,72.3,32.37,72.3,72.3,72.3Z"/>
      <path class="cls-2" d="M6717.21,2237.47c39.93,0,72.3-32.37,72.3-72.3s-32.37-72.3-72.3-72.3-72.3,32.37-72.3,72.3,32.37,72.3,72.3,72.3Z"/>
      <path class="cls-2" d="M6193.02,2894.94c39.93,0,72.3-32.37,72.3-72.3s-32.37-72.3-72.3-72.3-72.3,32.37-72.3,72.3,32.37,72.3,72.3,72.3Z"/>
      <path class="cls-2" d="M6455.17,2894.94c39.93,0,72.3-32.37,72.3-72.3s-32.37-72.3-72.3-72.3-72.3,32.37-72.3,72.3,32.37,72.3,72.3,72.3Z"/>
      <path class="cls-2" d="M6717.21,2894.94c39.93,0,72.3-32.37,72.3-72.3s-32.37-72.3-72.3-72.3-72.3,32.37-72.3,72.3,32.37,72.3,72.3,72.3Z"/>
      <path class="cls-2" d="M6324.15,2401.84c39.93,0,72.3-32.37,72.3-72.3s-32.37-72.3-72.3-72.3-72.3,32.37-72.3,72.3,32.37,72.3,72.3,72.3Z"/>
      <path class="cls-2" d="M6586.19,2401.84c39.93,0,72.3-32.37,72.3-72.3s-32.37-72.3-72.3-72.3-72.3,32.37-72.3,72.3,32.37,72.3,72.3,72.3Z"/>
      <path class="cls-2" d="M6193.02,2566.21c39.93,0,72.3-32.37,72.3-72.3s-32.37-72.3-72.3-72.3-72.3,32.37-72.3,72.3,32.37,72.3,72.3,72.3Z"/>
      <path class="cls-2" d="M6455.17,2566.21c39.93,0,72.3-32.37,72.3-72.3s-32.37-72.3-72.3-72.3-72.3,32.37-72.3,72.3,32.37,72.3,72.3,72.3Z"/>
      <path class="cls-2" d="M6717.21,2566.21c39.93,0,72.3-32.37,72.3-72.3s-32.37-72.3-72.3-72.3-72.3,32.37-72.3,72.3,32.37,72.3,72.3,72.3Z"/>
      <path class="cls-2" d="M6324.15,2730.57c39.93,0,72.3-32.37,72.3-72.3s-32.37-72.3-72.3-72.3-72.3,32.37-72.3,72.3,32.37,72.3,72.3,72.3Z"/>
      <path class="cls-2" d="M6586.19,2730.57c39.93,0,72.3-32.37,72.3-72.3s-32.37-72.3-72.3-72.3-72.3,32.37-72.3,72.3,32.37,72.3,72.3,72.3Z"/>
    </g>
    <path class="cls-2" d="M4377.87,1654.99s0-58-58-58c0,0-58,0-58-58,0,0,0-58-58-58h-116s-58,0-58-58c0,0,0-58,58-58h116s58,0,58-58c0,0,0-58,58-58,0,0,58,0,58-58v-116s0-58,58-58c0,0,58,0,58,58v116s0,58,58,58c0,0,58,0,58,58,0,0,0,58,58,58h116s58,0,58,58c0,0,0,58-58,58h-116s-58,0-58,58c0,0,0,58-58,58,0,0-58,0-58,58v116s0,58-58,58c0,0-58,0-58-58v-116Z"/>
    <g>
      <path class="cls-2" d="M1397.79,7.13h54.08c12.39,18.58,27.75,41.43,46.07,68.53,18.33,26.97,38.07,55.62,59.24,85.69,21.17,30.2,41.43,59.63,61.04,88.53,19.62,28.91,37.17,54.33,52.66,76.4,15.49,22.07,27.36,38.07,35.36,48.01-9.94,7.49-20,15.23-30.33,23.36-10.2,8.13-18.84,15.49-25.55,22.33-16.78-14.33-36.65-31.49-59.63-51.75-22.97-20.26-46.85-41.94-71.76-65.17-24.91-23.36-50.33-46.46-76.4-69.43-26.07-22.97-51.88-44.78-77.31-65.17l102.47,25.17h-81.95l98.73-25.17c-19.88,15.49-40.4,32.65-61.56,51.24-21.17,18.58-41.94,37.3-62.46,55.88-20.52,18.58-40.27,36.91-59.11,54.98-18.97,18.07-36.91,34.85-54.08,50.33-17.04,15.49-32.78,28.26-47.11,38.2-6.84-6.19-15.23-13.29-25.17-21.42-9.94-8-19.88-15.87-29.81-23.36,6.19-8,15.23-20.65,26.97-37.68,11.74-17.04,25.81-36.65,41.94-58.72,16.13-22.07,32.78-45.69,49.82-70.85,17.04-25.17,34.2-50.2,51.24-74.98,17.04-24.78,32.91-48.14,47.49-69.95,14.58-21.68,26.2-40.01,34.97-54.98h.13Z"/>
      <path class="cls-2" d="M1397.79,410.96h54.08c12.39,18.58,27.75,41.43,46.07,68.53,18.33,26.97,38.07,55.62,59.24,85.7,21.17,30.2,41.43,59.63,61.04,88.53,19.62,28.91,37.17,54.33,52.66,76.4,15.49,22.07,27.36,38.07,35.36,48.01-9.94,7.49-20,15.23-30.33,23.36-10.2,8.13-18.84,15.49-25.55,22.33-16.78-14.33-36.65-31.49-59.63-51.75-22.97-20.26-46.85-41.94-71.76-65.17-24.91-23.36-50.33-46.46-76.4-69.43-26.07-22.97-51.88-44.78-77.31-65.17l102.47,25.17h-81.95l98.73-25.17c-19.88,15.49-40.4,32.65-61.56,51.24-21.17,18.58-41.94,37.3-62.46,55.88-20.52,18.58-40.27,36.91-59.11,54.98-18.97,18.07-36.91,34.85-54.08,50.33-17.04,15.49-32.78,28.26-47.11,38.2-6.84-6.2-15.23-13.29-25.17-21.42-9.94-8-19.88-15.87-29.81-23.36,6.19-8,15.23-20.65,26.97-37.69,11.74-17.04,25.81-36.65,41.94-58.72,16.13-22.07,32.78-45.69,49.82-70.85,17.04-25.17,34.2-50.2,51.24-74.98,17.04-24.78,32.91-48.14,47.49-69.95,14.58-21.68,26.2-40.01,34.97-54.98h.13Z"/>
    </g>
    <path class="cls-2" d="M6179.87,823.82s-67.71,0-67.71-67.71c0,0,0-67.71,67.71-67.71,0,0,67.71,0,67.71-67.71V95.6s0-84.67,84.67-84.67h372.59s84.67,0,84.67,84.67v508.13s0,84.67-84.67,84.67h-389.55s-67.71,0-67.71,67.71c0,0,0,67.71-67.71,67.71Z"/>
    <path class="cls-2" d="M2295.76,3899.53c-23.13,0-45.57-4.53-66.69-13.46-20.4-8.63-38.73-20.98-54.46-36.72-15.74-15.74-28.09-34.06-36.72-54.46-8.93-21.12-13.46-43.56-13.46-66.69s4.21-43.98,12.52-64.42c22.65-55.72,4.71-119.71-43.62-155.52-8.54-6.33-16.75-13.42-24.4-21.07-19.88-19.88-35.49-43.04-46.4-68.83-11.29-26.7-17.02-55.05-17.02-84.29s5.73-57.59,17.02-84.29c10.91-25.78,26.52-48.94,46.4-68.83,19.89-19.89,43.04-35.5,68.83-46.41,26.7-11.29,55.05-17.02,84.29-17.02s57.59,5.72,84.29,17.02c25.79,10.91,48.94,26.52,68.83,46.41,6.16,6.16,11.97,12.7,17.27,19.43,25.81,32.78,64.4,50.29,103.64,50.29,23.24,0,46.7-6.14,67.87-18.88,6.87-4.13,14.15-7.83,21.64-11,21.13-8.94,43.56-13.47,66.69-13.47s45.57,4.53,66.69,13.46c20.4,8.63,38.73,20.98,54.46,36.72,15.73,15.73,28.09,34.06,36.72,54.46,8.93,21.12,13.46,43.56,13.46,66.69s-4.53,45.57-13.46,66.69c-8.01,18.95-19.25,36.12-33.4,51.05-25.49,26.9-38.48,63.28-35.79,100.24,2.69,36.96,20.81,71.08,49.93,94,3.28,2.58,6.48,5.43,9.5,8.44,9.68,9.68,17.28,20.96,22.59,33.51,5.5,13,8.29,26.81,8.29,41.04s-2.79,28.04-8.29,41.04c-5.31,12.55-12.91,23.83-22.6,33.52-9.68,9.68-20.96,17.28-33.51,22.59-13,5.5-26.81,8.29-41.04,8.29s-28.04-2.79-41.04-8.29c-12.56-5.31-23.83-12.91-33.52-22.6-3.78-3.78-7.26-7.82-10.37-12.02-24.49-33.14-63.06-52.92-104.26-53.46-.58,0-1.16-.01-1.74-.01-40.56,0-78.9,18.68-103.89,50.7-4.32,5.53-9.06,10.89-14.1,15.92-15.74,15.74-34.06,28.1-54.47,36.73-21.12,8.93-43.56,13.46-66.69,13.46Z"/>
    <circle class="cls-3" cx="436.28" cy="1423.43" r="406.45"/>
    <circle class="cls-3" cx="1419.36" cy="2492.95" r="406.45"/>
    <g>
      <path class="cls-2" d="M624.26,2799.74c-20.67,0-40.29-6.57-56.73-19.01-7.43-5.62-14.02-12.39-19.6-20.12-12.69-17.6-33.06-28.02-54.75-28.02H216.8c-64.58,0-117.11-52.54-117.11-117.11v-330.72c0-64.58,52.54-117.11,117.11-117.11h330.72c64.58,0,117.11,52.54,117.11,117.11v81.28c0,35.07,26.86,64.29,61.8,67.25,23.32,1.98,45.01,12.63,61.06,30.01,16.12,17.45,25,40.1,25,63.77,0,37.38-22.21,71.25-56.58,86.3-28.85,12.64-45.13,43.55-39.22,74.48,1.11,5.82,1.67,11.79,1.67,17.76,0,51.9-42.22,94.12-94.12,94.12Z"/>
      <path class="cls-1" d="M624.26,2799.74c-20.67,0-40.29-6.57-56.73-19.01-7.43-5.62-14.02-12.39-19.6-20.12-12.69-17.6-33.06-28.02-54.75-28.02H216.8c-64.58,0-117.11-52.54-117.11-117.11v-330.72c0-64.58,52.54-117.11,117.11-117.11h330.72c64.58,0,117.11,52.54,117.11,117.11v81.28c0,35.07,26.86,64.29,61.8,67.25,23.32,1.98,45.01,12.63,61.06,30.01,16.12,17.45,25,40.1,25,63.77,0,37.38-22.21,71.25-56.58,86.3-28.85,12.64-45.13,43.55-39.22,74.48,1.11,5.82,1.67,11.79,1.67,17.76,0,51.9-42.22,94.12-94.12,94.12Z"/>
    </g>
  </g>
</svg>